<svg xmlns="http://www.w3.org/2000/svg" xmlns:xlink="http://www.w3.org/1999/xlink" viewBox="0 0 91 40"><path d="M 47.877 22.583 C 47.877 26.417 46.566 29.667 43.86 32.417 C 41.237 35.083 37.958 36.5 34.186 36.5 C 31.153 36.5 28.448 35.583 26.07 33.833 C 23.119 36.75 19.512 38.25 15.413 38.25 C 11.15 38.25 7.542 36.75 4.591 33.667 C 1.558 30.583 0.082 26.917 0.082 22.667 L 0.082 1.833 C 0.082 1.333 0.246 0.917 0.574 0.583 C 0.902 0.25 1.312 0.083 1.804 0.083 L 46.156 0.083 C 46.648 0.083 47.058 0.25 47.386 0.583 C 47.714 0.917 47.877 1.333 47.877 1.833 Z M 3.525 22.583 C 3.525 25.917 4.673 28.833 7.05 31.167 C 9.346 33.5 12.215 34.75 15.495 34.75 C 18.692 34.75 21.397 33.667 23.693 31.417 C 25.168 30 26.726 29.833 28.366 31.167 C 30.087 32.417 32.055 33 34.268 33 C 37.056 33 39.515 32 41.483 29.917 C 43.45 27.917 44.516 25.417 44.516 22.583 L 44.516 3.5 L 3.525 3.5 Z M 24.021 22.583 C 24.021 25 23.201 27 21.561 28.75 C 19.922 30.417 17.872 31.25 15.495 31.25 C 13.117 31.25 11.15 30.417 9.428 28.75 C 7.788 27.083 6.968 25 6.968 22.583 L 6.968 8.75 C 6.968 8.25 7.132 7.833 7.46 7.5 C 7.788 7.167 8.198 7 8.69 7 L 22.381 7 C 22.873 7 23.283 7.167 23.611 7.5 C 23.939 7.833 24.103 8.25 24.103 8.75 L 24.103 22.583 Z M 10.33 22.583 C 10.33 24 10.822 25.25 11.805 26.25 C 12.789 27.25 14.019 27.75 15.413 27.75 C 16.806 27.75 18.036 27.25 19.02 26.25 C 20.004 25.25 20.495 24 20.495 22.583 L 20.495 10.5 L 10.33 10.5 Z M 27.464 8.75 C 27.464 8.25 27.628 7.833 27.956 7.5 C 28.284 7.167 28.694 7 29.186 7 L 39.351 7 C 39.843 7 40.253 7.167 40.581 7.5 C 40.909 7.833 41.073 8.25 41.073 8.75 L 41.073 22.667 C 41.073 24.583 40.417 26.25 39.105 27.583 C 37.794 28.917 36.154 29.583 34.268 29.583 C 32.383 29.583 30.743 28.917 29.432 27.583 C 28.12 26.25 27.464 24.583 27.464 22.667 Z M 37.712 10.5 L 30.907 10.5 L 30.907 22.667 C 30.907 23.583 31.235 24.417 31.891 25.083 C 32.547 25.75 33.367 26.083 34.268 26.083 C 35.17 26.083 35.99 25.75 36.646 25.083 C 37.302 24.417 37.63 23.583 37.63 22.667 L 37.63 10.5 Z" fill="rgb(226, 226, 227)"></path><path d="M 88.131 18.5 C 89.852 16.333 90.836 13.5 90.508 10.333 C 90.016 4.917 85.671 0.917 80.67 0.917 L 73.046 0.917 C 72.144 0.917 71.324 1.333 70.75 2 L 64.766 9 C 63.864 10 62.388 10 61.486 9 L 54.6 0.833 C 51.321 0.833 49.599 5.167 51.813 7.833 L 57.387 14.333 C 58.207 15.25 58.207 16.75 57.387 17.667 L 51.813 24.167 C 49.517 26.833 51.239 31.167 54.6 31.167 L 61.405 23.167 C 62.306 22.167 63.782 22.167 64.684 23.167 L 71.488 31.167 C 74.768 31.167 76.489 26.833 74.276 24.167 L 68.865 17.75 C 68.045 16.833 68.045 15.333 68.865 14.417 L 73.62 8.833 C 74.112 8.25 74.85 7.917 75.669 7.917 L 80.916 7.917 C 82.556 7.917 84.032 9.167 84.195 10.917 C 84.441 12.917 83.13 14.667 81.408 14.917 L 78.211 14.917 C 76.407 14.917 75.014 16.5 75.014 18.417 C 75.014 20.333 76.407 21.917 78.211 21.917 L 81.654 21.917 C 82.802 22 83.704 23 83.704 24.333 L 83.704 31.167 L 83.868 31.167 C 87.311 31.167 90.098 28.083 90.098 24.333 C 90.016 22.167 89.278 20.083 88.131 18.5 Z M 48.451 34 C 47.222 34 46.402 34.833 46.402 36.167 C 46.402 37.167 46.894 38.333 48.451 38.333 C 49.681 38.333 50.173 37.583 50.337 37.167 L 50.419 36.917 L 49.599 36.917 L 49.517 37 C 49.353 37.333 49.107 37.667 48.369 37.667 C 47.632 37.667 47.14 37.167 47.14 36.417 L 50.337 36.417 L 50.337 35.917 C 50.419 35.167 49.927 34 48.451 34 Z M 48.369 34.667 C 49.025 34.667 49.435 35.083 49.517 35.667 L 47.14 35.667 C 47.304 35 47.714 34.667 48.369 34.667 Z M 55.83 34.25 C 56.568 35.167 56.895 35.583 57.059 35.833 C 57.305 35.583 57.715 35 58.371 34.25 L 58.863 34.25 L 57.305 36.083 L 58.863 38.083 L 58.371 38.083 C 57.715 37.25 57.305 36.667 57.059 36.417 C 56.895 36.667 56.486 37.167 55.748 38.083 L 55.256 38.083 L 56.814 36.167 L 55.338 34.25 Z M 60.093 37.5 L 60.093 39.583 L 59.683 39.583 L 59.683 34.25 L 60.093 34.25 L 60.093 34.917 C 60.339 34.5 60.831 34.167 61.65 34.167 C 62.716 34.167 63.454 34.917 63.454 36.083 C 63.454 37.417 62.634 38.167 61.568 38.167 C 60.667 38.167 60.257 37.833 60.093 37.5 Z M 62.88 36.083 C 62.88 35.167 62.388 34.5 61.486 34.5 C 60.421 34.5 60.011 35.083 60.011 36.083 C 60.011 37.083 60.339 37.75 61.486 37.75 C 62.388 37.833 62.88 37.167 62.88 36.083 Z M 64.602 36.167 C 64.602 37.167 65.176 37.75 65.995 37.75 C 66.815 37.75 67.143 37.333 67.225 37 L 67.635 37 C 67.471 37.5 66.979 38.083 65.914 38.083 C 64.602 38.083 64.028 37.083 64.028 36.083 C 64.028 35 64.684 34.083 65.914 34.083 C 67.307 34.083 67.717 35.083 67.717 35.833 L 67.717 36.167 Z M 67.471 35.833 C 67.471 35.083 66.979 34.5 66.159 34.5 C 65.258 34.5 64.848 35.083 64.766 35.833 Z M 68.947 35.25 L 68.947 34.25 L 69.357 34.25 L 69.357 35.083 C 69.603 34.5 70.177 34.167 70.914 34.167 L 70.914 34.583 C 70.013 34.667 69.357 35.167 69.357 36.083 L 69.357 38.083 L 68.947 38.083 Z M 71.734 32.417 L 72.144 32.417 L 72.144 33.167 L 71.734 33.167 Z M 71.734 34.25 L 72.144 34.25 L 72.144 38.083 L 71.734 38.083 Z M 73.702 36.167 C 73.702 37.167 74.276 37.75 75.095 37.75 C 75.915 37.75 76.243 37.333 76.325 37 L 76.735 37 C 76.571 37.5 76.079 38.083 75.014 38.083 C 73.702 38.083 73.128 37.083 73.128 36.083 C 73.128 35 73.784 34.083 75.014 34.083 C 76.407 34.083 76.817 35.083 76.817 35.833 L 76.817 36.167 Z M 76.571 35.833 C 76.571 35.083 76.079 34.5 75.259 34.5 C 74.358 34.5 73.948 35.083 73.866 35.833 Z M 78.047 35.25 L 78.047 34.25 L 78.457 34.25 L 78.457 35 C 78.621 34.583 79.031 34.167 79.932 34.167 C 80.752 34.167 81.408 34.583 81.408 35.583 L 81.408 38.083 L 80.998 38.083 L 80.998 35.667 C 80.998 35 80.67 34.583 79.932 34.583 C 78.867 34.583 78.539 35.333 78.539 36.167 L 78.539 38.083 L 78.129 38.083 L 78.129 35.25 Z M 86.163 36.917 C 85.917 37.583 85.425 38.167 84.441 38.167 C 83.376 38.167 82.556 37.417 82.556 36.167 C 82.556 35.083 83.212 34.167 84.523 34.167 C 85.671 34.167 86.081 34.833 86.163 35.417 L 85.753 35.417 C 85.589 35 85.261 34.583 84.523 34.583 C 83.622 34.583 83.048 35.25 83.048 36.25 C 83.048 37.167 83.54 37.917 84.441 37.917 C 85.097 37.917 85.507 37.667 85.671 37.083 L 86.163 37.083 Z M 87.311 36.167 C 87.311 37.167 87.885 37.75 88.705 37.75 C 89.524 37.75 89.852 37.333 89.934 37 L 90.344 37 C 90.18 37.5 89.688 38.083 88.623 38.083 C 87.311 38.083 86.737 37.083 86.737 36.083 C 86.737 35 87.393 34.083 88.623 34.083 C 90.016 34.083 90.426 35.083 90.426 35.833 L 90.426 36.167 Z M 90.098 35.833 C 90.098 35.083 89.606 34.5 88.786 34.5 C 87.885 34.5 87.475 35.083 87.393 35.833 Z" fill="rgb(226, 226, 227)"></path></svg>